# xmcd
#
# Track frame offsets:
#	150
#	16601
#	35487
#	53921
#	71266
#	87651
#	103120
#	121409
#	137533
#	155560
#	175043
#	192955
#	213250
#
# Disc length: 3132 seconds
#
# Revision: 0
# Processed by: cddbd v1.4PL0 Copyright (c) Steve Scherf et al.
# Submitted via: EZCDDA 4.3.3.2
#
DISCID=aa0c3a0d
DTITLE=Carmen Consoli - Stato di necessità
DYEAR=1900
DGENRE=
TTITLE0=Bambina impertinente
TTITLE1=Stato di necessità
TTITLE2=Parole di burro
TTITLE3=Novembre '99
TTITLE4=In bianco e nero
TTITLE5=L'ultimo bacio
TTITLE6=Il sultano (della kianca)
TTITLE7=Amado senor
TTITLE8=L'epilogo
TTITLE9=Orfeo
TTITLE10=Equilibrio precario
TTITLE11=Non volermi male
TTITLE12=Orfeo (live)
EXTD=
EXTT0=
EXTT1=
EXTT2=
EXTT3=
EXTT4=
EXTT5=
EXTT6=
EXTT7=
EXTT8=
EXTT9=
EXTT10=
EXTT11=
EXTT12=
PLAYORDER=
